<?xml version="1.0" encoding="UTF-8"?>
<svg xmlns="http://www.w3.org/2000/svg" xmlns:xlink="http://www.w3.org/1999/xlink" width="20pt" height="22pt" viewBox="0 0 20 22" version="1.1">
<g id="surface1">
<path style=" stroke:none;fill-rule:nonzero;fill:rgb(0%,0%,0%);fill-opacity:1;" d="M 6.605469 12.375 L 4.820312 12.375 C 4.527344 12.375 4.285156 12.144531 4.285156 11.859375 L 4.285156 10.140625 C 4.285156 9.855469 4.527344 9.625 4.820312 9.625 L 6.605469 9.625 C 6.902344 9.625 7.144531 9.855469 7.144531 10.140625 L 7.144531 11.859375 C 7.144531 12.144531 6.902344 12.375 6.605469 12.375 Z M 11.429688 11.859375 L 11.429688 10.140625 C 11.429688 9.855469 11.1875 9.625 10.894531 9.625 L 9.105469 9.625 C 8.8125 9.625 8.570312 9.855469 8.570312 10.140625 L 8.570312 11.859375 C 8.570312 12.144531 8.8125 12.375 9.105469 12.375 L 10.894531 12.375 C 11.1875 12.375 11.429688 12.144531 11.429688 11.859375 Z M 15.714844 11.859375 L 15.714844 10.140625 C 15.714844 9.855469 15.472656 9.625 15.179688 9.625 L 13.394531 9.625 C 13.097656 9.625 12.855469 9.855469 12.855469 10.140625 L 12.855469 11.859375 C 12.855469 12.144531 13.097656 12.375 13.394531 12.375 L 15.179688 12.375 C 15.472656 12.375 15.714844 12.144531 15.714844 11.859375 Z M 11.429688 15.984375 L 11.429688 14.265625 C 11.429688 13.980469 11.1875 13.75 10.894531 13.75 L 9.105469 13.75 C 8.8125 13.75 8.570312 13.980469 8.570312 14.265625 L 8.570312 15.984375 C 8.570312 16.269531 8.8125 16.5 9.105469 16.5 L 10.894531 16.5 C 11.1875 16.5 11.429688 16.269531 11.429688 15.984375 Z M 7.144531 15.984375 L 7.144531 14.265625 C 7.144531 13.980469 6.902344 13.75 6.605469 13.75 L 4.820312 13.75 C 4.527344 13.75 4.285156 13.980469 4.285156 14.265625 L 4.285156 15.984375 C 4.285156 16.269531 4.527344 16.5 4.820312 16.5 L 6.605469 16.5 C 6.902344 16.5 7.144531 16.269531 7.144531 15.984375 Z M 15.714844 15.984375 L 15.714844 14.265625 C 15.714844 13.980469 15.472656 13.75 15.179688 13.75 L 13.394531 13.75 C 13.097656 13.75 12.855469 13.980469 12.855469 14.265625 L 12.855469 15.984375 C 12.855469 16.269531 13.097656 16.5 13.394531 16.5 L 15.179688 16.5 C 15.472656 16.5 15.714844 16.269531 15.714844 15.984375 Z M 20 4.8125 L 20 19.9375 C 20 21.078125 19.039062 22 17.855469 22 L 2.144531 22 C 0.960938 22 0 21.078125 0 19.9375 L 0 4.8125 C 0 3.671875 0.960938 2.75 2.144531 2.75 L 4.285156 2.75 L 4.285156 0.515625 C 4.285156 0.230469 4.527344 0 4.820312 0 L 6.605469 0 C 6.902344 0 7.144531 0.230469 7.144531 0.515625 L 7.144531 2.75 L 12.855469 2.75 L 12.855469 0.515625 C 12.855469 0.230469 13.097656 0 13.394531 0 L 15.179688 0 C 15.472656 0 15.714844 0.230469 15.714844 0.515625 L 15.714844 2.75 L 17.855469 2.75 C 19.039062 2.75 20 3.671875 20 4.8125 Z M 17.855469 19.679688 L 17.855469 6.875 L 2.144531 6.875 L 2.144531 19.679688 C 2.144531 19.820312 2.261719 19.9375 2.410156 19.9375 L 17.589844 19.9375 C 17.738281 19.9375 17.855469 19.820312 17.855469 19.679688 Z M 17.855469 19.679688 "/>
</g>
</svg>
